<?xml version="1.0" standalone="no"?>
<!DOCTYPE svg PUBLIC "-//W3C//DTD SVG 20010904//EN"
 "http://www.w3.org/TR/2001/REC-SVG-20010904/DTD/svg10.dtd">
<svg version="1.0" xmlns="http://www.w3.org/2000/svg"
 width="274.000000pt" height="274.000000pt" viewBox="0 0 274.000000 274.000000"
 preserveAspectRatio="xMidYMid meet">
<metadata>
Created by potrace 1.11, written by Peter Selinger 2001-2013
</metadata>
<g transform="translate(0.000000,274.000000) scale(0.100000,-0.100000)"
fill="#000000" stroke="none">
<path d="M2138 2685 c-1 -1 -39 -5 -83 -9 -99 -7 -116 -10 -185 -38 -53 -21
-159 -91 -161 -106 -5 -35 -5 -61 0 -59 3 1 16 -4 28 -11 12 -7 36 -10 53 -7
16 3 45 7 63 10 17 3 43 8 57 10 171 33 341 12 415 -50 97 -83 125 -131 130
-228 4 -72 -24 -153 -63 -182 -24 -18 -39 -20 -142 -16 -368 13 -488 0 -637
-70 -34 -16 -67 -29 -73 -29 -5 0 -10 -4 -10 -8 0 -9 -37 -29 -54 -30 -5 0
-12 -4 -15 -9 -3 -4 -35 -26 -71 -47 -36 -22 -66 -43 -68 -48 -2 -4 -8 -8 -13
-8 -6 0 -36 -17 -67 -37 -31 -21 -66 -42 -77 -48 -43 -25 -180 -110 -185 -116
-3 -3 -27 -19 -53 -35 -27 -16 -61 -37 -75 -46 -15 -10 -34 -21 -42 -25 -8 -3
-17 -9 -20 -12 -10 -12 -120 -81 -120 -76 0 3 -10 -4 -22 -15 -12 -11 -28 -18
-35 -16 -7 3 -12 0 -10 -6 1 -6 -8 -16 -19 -23 -38 -19 -279 -180 -282 -187
-2 -5 -8 -8 -14 -8 -29 0 -145 -124 -155 -165 -1 -5 -5 -21 -8 -35 -5 -19 -4
-22 4 -10 9 12 11 12 11 1 0 -9 8 -5 21 10 12 13 24 23 28 23 3 -1 36 -5 72
-8 123 -11 358 -94 384 -136 7 -12 1 -12 -233 -16 -95 -1 -179 -5 -188 -8 -24
-9 -7 -24 23 -19 60 9 123 9 123 1 0 -15 -19 -47 -67 -112 -46 -63 -76 -90
-87 -79 -3 3 -6 1 -6 -5 0 -5 5 -12 12 -14 10 -4 -20 -58 -43 -78 -3 -3 -19
-26 -37 -51 -74 -109 -50 -128 158 -123 80 2 156 5 170 7 14 3 54 10 89 16 34
7 66 10 69 7 3 -3 -1 -6 -9 -6 -10 -1 -9 -4 4 -14 12 -9 28 -11 51 -6 44 10
96 33 96 42 0 5 4 8 9 8 5 0 9 -14 9 -31 -1 -35 15 -50 46 -42 12 3 31 5 44 6
12 1 22 5 22 9 0 4 8 8 18 8 10 0 23 5 30 12 8 8 15 8 26 -1 18 -15 96 -23 96
-10 0 5 -8 9 -18 9 -10 0 -25 9 -35 20 -16 19 -15 20 11 34 15 8 38 24 51 35
29 25 35 26 55 5 23 -22 20 -63 -6 -84 -25 -21 -7 -22 28 -3 16 9 27 9 47 -2
14 -7 27 -11 29 -9 2 2 21 10 41 19 l37 15 -43 -62 c-45 -65 -64 -88 -132
-162 -22 -24 -51 -55 -64 -70 -14 -14 -19 -26 -12 -26 6 0 35 26 64 57 29 31
71 76 94 100 23 24 40 43 37 43 -3 0 7 11 21 25 14 14 25 29 25 33 0 5 20 18
45 30 36 17 50 20 66 11 29 -15 128 -31 184 -29 48 1 102 7 125 14 14 4 36 8
50 10 14 1 53 16 87 33 l62 30 -5 -27 c-11 -51 37 -69 108 -42 36 15 106 78
124 114 14 28 15 28 46 12 19 -10 44 -14 65 -11 18 3 33 3 33 0 0 -3 -13 -25
-29 -49 -17 -24 -26 -46 -21 -49 5 -3 7 -12 4 -19 -11 -30 37 -24 86 10 28 19
50 32 50 29 0 -3 -29 -48 -65 -100 -36 -52 -65 -99 -65 -105 0 -5 -4 -10 -10
-10 -5 0 -22 -21 -37 -47 -15 -27 -32 -51 -38 -55 -6 -5 -3 -8 7 -8 10 0 22 6
27 13 22 26 107 137 126 163 11 16 28 36 38 46 9 10 17 21 17 24 0 5 10 19 56
79 23 30 111 155 139 196 41 63 20 102 -27 49 -16 -19 -33 -35 -36 -36 -4 0
-14 -4 -23 -8 -10 -4 -23 -6 -30 -5 -23 4 -62 -17 -98 -50 -18 -17 -37 -31
-41 -31 -5 0 -10 -4 -12 -9 -1 -5 -20 -11 -40 -14 -27 -3 -41 0 -52 12 -22 24
-26 61 -10 92 21 42 -10 55 -45 20 -15 -15 -19 -28 -14 -55 4 -29 0 -45 -22
-78 -49 -74 -134 -133 -146 -101 -15 43 73 169 132 192 12 4 18 10 13 14 -6 3
-29 -3 -53 -14 -33 -15 -41 -16 -31 -4 7 8 9 15 5 15 -4 0 -3 6 3 13 10 13 26
72 25 97 -1 52 -65 113 -137 132 -48 12 -236 17 -381 9 -33 -2 -73 0 -88 4
-25 7 -28 5 -25 -11 3 -20 22 -21 143 -11 22 2 43 2 48 0 4 -2 -6 -24 -23 -48
-16 -24 -30 -46 -30 -50 0 -4 -6 -13 -12 -20 -7 -8 -26 -32 -43 -55 -20 -28
-35 -40 -47 -36 -10 2 -18 1 -18 -2 0 -4 -13 -21 -29 -37 -15 -17 -36 -46 -45
-65 -25 -53 -64 -92 -104 -106 -20 -6 -40 -10 -44 -8 -7 5 1 35 12 44 3 3 16
22 29 43 12 20 26 37 30 37 4 0 14 13 24 29 13 22 14 30 4 34 -15 6 -57 -9
-57 -21 0 -4 -8 -17 -18 -28 -9 -10 -25 -31 -35 -47 -10 -15 -21 -27 -25 -27
-9 0 -57 69 -51 74 17 14 73 34 83 30 7 -3 16 2 19 10 7 17 -1 20 -42 18 -30
-2 -101 -48 -101 -65 0 -23 -53 -72 -112 -106 -32 -18 -60 -37 -63 -42 -4 -5
-10 -7 -15 -4 -5 3 -11 1 -15 -5 -10 -17 -75 -12 -75 5 0 8 4 15 9 15 5 0 7 9
4 20 -3 11 -1 20 5 20 6 0 14 9 17 21 7 21 41 76 73 116 9 12 27 22 40 23 13
0 20 4 17 10 -4 6 -11 7 -17 4 -7 -5 -9 -1 -5 9 3 9 2 19 -3 22 -6 4 -10 1
-10 -4 0 -6 -3 -10 -7 -9 -5 1 -18 -3 -30 -10 -12 -7 -26 -11 -30 -10 -42 9
-172 -64 -222 -126 -37 -44 -52 -56 -74 -56 -13 0 -27 -4 -32 -9 -16 -14 -102
-29 -211 -37 -83 -5 -105 -4 -132 10 -39 20 -40 39 -7 88 14 20 25 42 25 47 0
6 8 19 19 30 10 10 20 24 23 31 6 19 85 29 196 23 75 -4 106 -2 117 7 20 17 2
31 -29 23 -18 -4 -256 -12 -256 -8 0 6 75 103 122 157 35 41 37 42 105 43 37
1 74 -3 82 -9 11 -8 15 -8 18 2 3 6 9 10 14 6 20 -12 48 -12 59 1 10 12 6 20
-21 42 -57 50 -126 90 -166 99 -7 1 -41 11 -75 23 -48 16 -217 51 -245 51 -2
0 2 10 8 23 20 37 76 85 147 123 37 20 90 51 117 69 73 47 99 62 152 91 26 15
55 34 63 44 8 9 33 27 55 40 22 13 90 56 150 95 124 82 243 155 251 155 2 0
10 5 17 10 72 62 358 240 385 240 7 0 12 4 12 8 0 12 126 69 191 87 30 8 80
17 110 20 81 6 285 6 359 -1 122 -11 154 -7 201 27 49 35 73 99 73 199 1 104
-24 160 -97 226 -113 102 -252 127 -498 90 -123 -18 -182 -17 -149 4 8 6 11
10 6 10 -30 0 115 84 179 102 58 18 380 20 405 3 8 -5 17 -10 20 -11 41 -8
168 -91 199 -130 33 -42 74 -134 80 -178 11 -79 4 -266 -10 -266 -5 0 -5 -7
-2 -17 5 -12 3 -14 -7 -8 -9 5 -11 4 -6 -3 9 -15 -24 -77 -67 -125 -32 -36
-33 -41 -26 -85 4 -26 13 -60 19 -77 32 -78 29 -178 -6 -234 -37 -58 -89 -106
-186 -172 -98 -66 -124 -97 -135 -160 -9 -56 -8 -66 14 -167 l18 -84 -28 -24
c-25 -22 -37 -24 -120 -23 -51 0 -98 -1 -106 -3 -23 -5 -22 16 3 43 54 58 53
139 -4 251 -62 123 -76 199 -56 293 3 11 5 23 5 26 1 4 23 37 51 75 27 37 46
72 42 76 -10 10 -68 -9 -95 -31 -90 -73 -108 -118 -102 -244 5 -95 4 -96 -35
-174 -21 -43 -48 -88 -59 -100 -12 -12 -21 -27 -21 -33 0 -6 -4 -8 -10 -5 -5
3 -10 -1 -10 -10 0 -9 -4 -13 -10 -10 -5 3 -10 2 -10 -2 0 -12 -126 -106 -175
-130 -42 -20 -37 -20 -300 -9 -220 10 -503 8 -525 -4 -18 -10 -30 -43 -12 -38
4 1 16 -3 27 -9 41 -22 165 -35 325 -34 202 1 286 8 370 28 49 12 113 16 264
15 189 -1 200 -3 222 -23 20 -18 34 -22 96 -21 40 1 109 11 153 22 44 12 98
23 120 26 58 6 86 13 109 30 21 15 21 15 -4 10 -46 -11 -100 -15 -100 -8 0 4
9 13 20 20 12 7 18 17 15 22 -3 6 -2 10 3 10 13 0 9 43 -5 58 -7 7 -13 24 -13
37 0 13 -5 27 -11 31 -7 4 -9 27 -6 63 9 103 9 103 93 169 15 12 31 22 35 22
16 0 122 92 163 141 62 76 79 170 46 259 -27 75 -38 128 -27 139 6 6 8 11 4
11 -5 0 7 16 26 35 18 19 46 60 62 92 27 54 29 67 31 185 2 135 -15 229 -51
285 -32 48 -130 137 -186 167 -79 42 -123 55 -208 62 -42 3 -81 7 -88 9 -6 2
-13 2 -15 0z m-178 -1128 c-18 -15 -38 -45 -46 -69 -4 -10 -10 -18 -14 -18 -4
0 -6 -18 -5 -40 1 -32 -1 -38 -11 -29 -26 21 3 118 36 120 10 0 11 2 2 6 -13
5 24 42 43 42 6 0 3 -5 -5 -12z m-63 -270 c-2 -7 8 -37 24 -68 15 -31 25 -59
22 -63 -4 -3 -1 -6 6 -6 7 0 10 -4 7 -9 -3 -5 1 -11 9 -15 8 -3 15 -17 15 -31
0 -15 3 -24 8 -22 4 3 7 -24 8 -59 1 -35 -3 -64 -7 -64 -4 0 -11 -9 -14 -21
-8 -23 -83 -81 -96 -74 -4 3 -80 6 -168 6 l-161 1 63 46 c156 114 265 271 269
386 1 28 4 34 10 21 5 -8 7 -21 5 -28z m-812 -437 c0 -1 55 -3 123 -5 170 -4
174 -18 5 -18 -18 0 -33 -3 -33 -6 0 -10 -284 -6 -299 3 -10 7 -12 6 -6 -4 6
-10 4 -11 -6 -4 -8 4 -32 9 -54 11 -22 1 -49 4 -60 7 -11 2 -27 5 -35 5 -10 1
-11 4 -3 9 9 6 368 8 368 2z m942 -26 c-10 -10 -57 -14 -57 -5 0 5 10 11 23
13 23 4 42 -1 34 -8z m-67 -4 c0 -12 -8 -12 -35 0 -18 8 -17 9 8 9 15 1 27 -3
27 -9z m-123 -75 c54 -5 85 -19 120 -52 28 -26 30 -32 28 -98 -2 -80 -21 -118
-95 -194 -93 -95 -301 -144 -406 -94 -49 23 -51 38 -8 86 6 7 11 17 12 22 1 6
9 18 17 27 8 10 27 37 41 60 29 45 139 194 161 216 7 7 13 18 13 24 0 6 11 8
25 6 14 -3 28 -1 31 4 3 4 9 6 14 3 5 -3 26 -8 47 -10z m-937 -243 c0 -4 -11
-19 -25 -34 -14 -15 -25 -31 -25 -37 0 -12 -104 -101 -119 -101 -6 0 -11 -4
-11 -10 0 -5 -9 -10 -19 -10 -25 0 -21 19 13 66 42 58 106 113 140 123 41 12
46 12 46 3z m1590 -12 c-8 -6 -12 -10 -7 -10 8 0 -35 -52 -73 -86 -14 -13 -43
-39 -65 -59 -38 -35 -55 -34 -39 3 4 9 8 24 10 32 2 8 8 16 13 18 6 2 11 8 11
14 0 5 7 16 15 24 8 8 18 22 23 31 5 8 33 23 63 33 53 18 78 18 49 0z m-1137
-165 c-3 -9 -8 -14 -10 -11 -3 3 -2 9 2 15 9 16 15 13 8 -4z"/>
</g>
</svg>
